<svg xmlns="http://www.w3.org/2000/svg" viewBox="0 0 100 28">
  <defs>
    <style>
      .st0 {
        fill: #fff;
      }

      .st1 {
        fill: #939393;
      }

      .st2 {
        fill: #141928;
      }
    </style>
  </defs>
  <g>
    <path d="M54.1,9.7v-4.8h.4v4.8h-.4ZM54.3,5.3v-.4h2.7v.4h-2.7ZM54.3,7.4v-.4h2.6v.4h-2.6ZM54.3,9.7v-.4h2.8v.4h-2.8Z"/>
    <path d="M57.7,9.7v-.4l2.7-4.1h-2.7v-.4h3.2v.4l-2.7,4.1h2.8v.4h-3.3Z"/>
    <path d="M61.8,7.1h1.9v.4h-1.9v-.4Z"/>
    <path d="M64.6,9.7v-4.8h.4v4.8h-.4ZM64.8,5.3v-.4h2.7v.4h-2.7ZM64.8,7.4v-.4h2.4v.4h-2.4Z"/>
    <path d="M68.1,9.7v-4.8h.4v4.8h-.4Z"/>
    <path d="M69.6,9.7v-4.8h.4v4.8h-.4ZM69.8,9.7v-.4h2.6v.4h-2.6Z"/>
    <path d="M73.1,9.7v-4.8h.4v4.8h-.4ZM73.3,9.7v-.4h2.6v.4h-2.6Z"/>
    <path d="M76.5,8.4c.1.3.3.6.6.8.3.2.6.3,1,.3s.7,0,.9-.2c.2-.2.3-.4.3-.6s0-.5-.2-.6c-.2-.1-.4-.3-.7-.3l-.7-.2c-.4-.1-.7-.3-.9-.5-.2-.2-.4-.5-.4-.8s0-.5.2-.7c.1-.2.3-.3.6-.4.2-.1.5-.2.8-.2.4,0,.8.1,1.1.3.3.2.5.5.6.8l-.4.2c-.1-.3-.3-.5-.5-.7-.2-.2-.5-.2-.8-.2s-.6,0-.8.2c-.2.2-.3.4-.3.6s0,.4.2.6.4.3.7.3l.7.2c.4.1.7.3.9.5.2.2.4.5.4.8s0,.5-.2.7c-.1.2-.3.3-.6.4s-.5.2-.9.2c-.5,0-.9-.1-1.2-.3-.3-.2-.6-.5-.7-.9l.4-.2Z"/>
    <path d="M80.3,5.3v-.4h3.8v.4h-3.8ZM81.9,9.7v-4.7h.4v4.7h-.4Z"/>
    <path d="M83.8,9.7l1.9-4.8h.4l-1.8,4.8h-.5ZM84.7,8.1v-.4h2.4v.4h-2.4ZM87.6,9.7l-1.8-4.8h.4l1.8,4.8h-.5Z"/>
    <path d="M90.4,9.8c-.4,0-.7,0-1-.2s-.5-.4-.7-.7c-.2-.3-.3-.7-.3-1.1v-.9c0-.4,0-.8.3-1.1.2-.3.4-.5.7-.7s.6-.2,1-.2.9.1,1.2.4.5.6.7,1.1h-.4c-.1-.3-.3-.6-.5-.8-.2-.2-.6-.3-.9-.3s-.6,0-.8.2-.4.3-.6.6c-.1.3-.2.6-.2.9v.8c0,.4,0,.7.2.9.1.3.3.4.6.6.2.1.5.2.8.2s.7-.1.9-.3c.2-.2.4-.5.5-.9h.4c-.1.6-.3.9-.7,1.2-.3.3-.7.4-1.2.4Z"/>
    <path d="M93,9.7v-4.8h.4v4.8h-.4ZM93.2,8.2v-.5c-.1,0,2.5-2.8,2.5-2.8h.6l-3,3.3ZM95.9,9.7l-2.1-2.7h.4c0-.1,2.2,2.7,2.2,2.7h-.6Z"/>
  </g>
  <g>
    <path d="M36.8,25.3v-2.3h14.2v2.3h-14.2ZM38.2,14.3v-2.3h11.6v2.3h-11.6ZM38.2,20.8v-2.3h11.6v2.3h-11.6ZM40.3,19.7v-6.7h2.4v6.7h-2.4ZM45.1,19.7v-6.7h2.4v6.7h-2.4Z"/>
    <path d="M52,25.3v-2.3h14.2v2.3h-14.2ZM53.6,21v-5.6h8.6v-1.2h-8.7v-2.2h11.2v5.6h-8.6v1.2h8.9v2.2h-11.4ZM57.9,24.7v-4.7h2.5v4.7h-2.5Z"/>
    <path d="M66.9,17.9c1-.6,1.6-1.3,2-2,.4-.7.6-1.4.6-2.2v-.8h2.4v.8c0,1.3-.3,2.5-.9,3.5-.6,1-1.5,1.9-2.7,2.6l-1.4-1.9ZM67.5,13.9v-2.2h6.6v2.2h-6.6ZM73.2,19.5l-3.7-2.9,1.5-1.7,3.7,2.8-1.4,1.9ZM78.2,26.4v-3.8h-8.3v-2.3h10.8v6.1h-2.5ZM73.4,16.4v-2.1h2.6v2.1h-2.6ZM75.1,19.6v-8.2h2.3v8.2h-2.3ZM78.3,19.6v-8.4h2.3v8.4h-2.3Z"/>
    <path d="M82.3,25.3v-2.3h14.2v2.3h-14.2ZM83.9,21.1v-9.1h11.1v2.2h-8.6v4.7h8.9v2.2h-11.4ZM85.1,17.7v-2.2h9.9v2.2h-9.9Z"/>
  </g>
  <g id="gift-box-icon">
    <path class="st0" d="M24.1,6.6c.6,0,1,.4,1,1s-.4,1-1,1-1-.5-1-1,.4-1,1-1Z"/>
    <path class="st0" d="M19.8,3.1c.7,0,1.2.6,1.2,1.2s-.6,1.2-1.2,1.2-1.2-.6-1.2-1.2.5-1.2,1.2-1.2Z"/>
    <polygon class="st1" points="20.1 13.5 20.1 24.9 17.1 24.9 17.1 22.9 17.1 13.5 17.1 11 20.1 11 20.1 13.5"/>
    <rect class="st0" x="20.1" y="11" width="6.5" height="2.5"/>
    <rect class="st0" x="10.7" y="22.9" width="6.5" height="2"/>
    <path class="st0" d="M26.6,24.9h-6.5v-11.4h6.5v11.4Z"/>
    <polygon class="st0" points="17.1 13.5 17.1 22.9 10.7 22.9 10.7 17.8 14.9 11 14.9 11 17.1 11 17.1 13.5"/>
    <polygon class="st1" points="10.7 17.8 7.2 23.4 4.6 21.9 14.6 5.8 17.1 7.4 14.9 11 10.7 17.8"/>
    <path class="st0" d="M9.3,6.8s2.4,2.7.6,6.6c0,0-.6-3.9-2.3-4.6h1.6s.2-2,.2-2Z"/>
    <path class="st0" d="M4.7,13.3c1.4,1.3,5.1,0,5.1,0-2.6,3.3-6.2,2.4-6.2,2.4l1.7-1-.6-1.4Z"/>
    <path class="st2" d="M24.4,3.2c0,0,.2.2.2.4s0,.3-.2.4c-.1,0-.2.1-.4.1-.3,0-.5-.2-.5-.5s0-.3.2-.4c0,0,.2-.2.4-.2s.3,0,.4.2Z"/>
    <path class="st2" d="M21.9,22.6c0,0,.2.2.2.4s0,.3-.2.4c0,0-.2.2-.4.2-.3,0-.5-.2-.5-.5s0-.3.2-.4c0,0,.2-.2.4-.2s.3,0,.4.2Z"/>
    <path class="st2" d="M20.9,8.2c0,0,.2.2.2.4s0,.3-.2.4c0,0-.2.2-.4.2-.3,0-.5-.2-.5-.5s0-.3.2-.4c0,0,.2-.2.4-.2s.3,0,.4.2Z"/>
    <path class="st2" d="M13,3.7c0,0,.2.2.2.4s0,.3-.2.4c-.1,0-.2.2-.4.2-.3,0-.5-.2-.5-.5s0-.3.2-.4c.1,0,.2-.2.4-.2s.3,0,.4.2Z"/>
    <path class="st2" d="M9.5,24.1c0,0,.2.2.2.4s0,.3-.2.4c-.1,0-.2.2-.4.2-.3,0-.5-.2-.5-.5s0-.3.2-.4c.1,0,.2-.2.4-.2s.3,0,.4.2Z"/>
    <path class="st2" d="M7,5.7c0,0,.2.2.2.4s0,.3-.2.4c-.1,0-.2.2-.4.2-.3,0-.5-.2-.5-.5s0-.3.2-.4c.1,0,.2-.2.4-.2s.3,0,.4.2Z"/>
    <path class="st2" d="M5.5,9.7c0,0,.2.2.2.4s0,.3-.2.4c0,0-.2.2-.4.2-.3,0-.5-.2-.5-.5s0-.3.2-.4c0,0,.2-.2.4-.2s.3,0,.4.2Z"/>
    <path class="st2" d="M5,18.1c0,0,.2.2.2.4s0,.3-.2.4c0,0-.2.2-.4.2-.3,0-.5-.2-.5-.5s0-.3.2-.4c0,0,.2-.2.4-.2s.3,0,.4.2Z"/>
    <path class="st2" d="M9.8,13.9h0c-.2,0-.4-.2-.4-.4h0c-.2-1-.8-3.7-2-4.2-.2,0-.4-.3-.3-.6,0-.2.2-.4.5-.4h1.2s.2-1.6.2-1.6c0-.2.2-.4.4-.4.2,0,.4,0,.5.2,0,0,.7.8,1.1,2,.4,1.2.6,3-.4,5.1-.1.1-.3.2-.5.2ZM8.8,9.3c.4.5.7,1.1,1,1.9,0,.1,0,.3.1.4.2-1.3,0-2.4-.3-3.2v.4c0,.2-.3.4-.5.4h-.2Z"/>
    <path class="st2" d="M4.9,16.4h0c-.8,0-1.3-.1-1.3-.2-.2,0-.3-.2-.4-.4,0-.2,0-.4.2-.5l1.3-.8-.5-1c0-.2,0-.5.2-.6.2-.1.4-.1.6,0,.3.3.9.4,1.7.4,1.4,0,2.9-.5,2.9-.5.2,0,.4,0,.6.2.1.2.1.4,0,.6-1.9,2.3-4.2,2.7-5.4,2.7ZM5.7,14.3v.2c.2.2.2.5,0,.6l-.4.2c.9,0,1.9-.4,3-1.1-.5,0-1,.1-1.5.1s-.7,0-1,0Z"/>
    <path class="st2" d="M7.2,23.9c0,0-.2,0-.3,0l-2.5-1.6c-.1,0-.2-.2-.2-.3,0-.1,0-.3,0-.4L14.2,5.6c.2-.2.4-.3.7-.2l2.5,1.6c.1,0,.2.2.2.3,0,.1,0,.3,0,.4L7.6,23.7c-.1.2-.3.2-.4.2ZM5.3,21.7l1.7,1,9.4-15.2-1.7-1-9.4,15.2Z"/>
    <path class="st2" d="M20.1,25.4c-.3,0-.5-.2-.5-.5v-13.4h-2v13.4c0,.3-.2.5-.5.5s-.5-.2-.5-.5v-13.9c0-.3.2-.5.5-.5h3c.3,0,.5.2.5.5v13.9c0,.2-.2.5-.5.5Z"/>
    <path class="st2" d="M17.1,23.4h-6.4c-.3,0-.5-.2-.5-.5s.2-.5.5-.5h6.4c.3,0,.5.2.5.5s-.2.5-.5.5Z"/>
    <path class="st2" d="M26.6,23.4h-3.5c-.3,0-.5-.2-.5-.5s.2-.5.5-.5h3.5c.3,0,.5.2.5.5,0,.3-.3.5-.5.5Z"/>
    <path class="st2" d="M26.6,25.4h-15.9c-.3,0-.5-.2-.5-.5v-7.1c0-.3.2-.5.5-.5s.5.2.5.5v6.6h14.9v-12.9h-11.2c-.3,0-.5-.2-.5-.5s.2-.5.5-.5h11.6c.3,0,.5.2.5.5v13.9c0,.3-.2.5-.5.5Z"/>
    <path class="st2" d="M26.6,14h-6.5c-.3,0-.5-.2-.5-.5s.2-.5.5-.5h6.5c.3,0,.5.2.5.5,0,.3-.3.5-.5.5Z"/>
    <path class="st2" d="M17.1,14h-2c-.3,0-.5-.2-.5-.5s.2-.5.5-.5h2c.3,0,.5.2.5.5s-.2.5-.5.5Z"/>
    <path class="st2" d="M24.1,9c-.8,0-1.5-.7-1.5-1.5s.7-1.5,1.5-1.5,1.5.7,1.5,1.5-.7,1.5-1.5,1.5ZM24.1,7c-.3,0-.5.2-.5.5s.2.5.5.5.5-.2.5-.5-.2-.5-.5-.5Z"/>
    <path class="st2" d="M19.8,6c-1,0-1.7-.8-1.7-1.7s.8-1.7,1.7-1.7,1.7.8,1.7,1.7-.8,1.7-1.7,1.7ZM19.8,3.6c-.4,0-.8.3-.8.8s.3.8.8.8.8-.3.8-.8-.4-.8-.8-.8Z"/>
  </g>
</svg>