<?xml version="1.0" encoding="UTF-8"?>
<svg xmlns="http://www.w3.org/2000/svg" viewBox="0 0 484.3 140.18">
  <defs>
    <style>
      .cls-1 {
        fill: #6634e7;
      }
    </style>
  </defs>
    <g>
      <path class="cls-1" d="M0,2.81h101.11v28.89H33.33v25.56h54.89v27.33h-54v27.56h68.89v28H0S0,1.93,0,2.81Z"/>
      <path d="M418.26,3.9c-35.64.78-63.85,31.92-63.02,69.55.83,37.63,30.39,67.5,66.02,66.71,35.64-.78,63.85-31.92,63.02-69.55-.83-37.63-30.39-67.5-66.02-66.71ZM419.76,114.44c-21.04,0-38.09-18.84-38.09-42.07s17.05-42.07,38.09-42.07,38.09,18.84,38.09,42.07-17.05,42.07-38.09,42.07Z"/>
      <path d="M340.43,70.5v-.03h-42.22v20.56h16.28v12.95c-6.92,5.05-14.84,7.83-22.78,7.72-17.29-.24-28.74-14.11-30.22-15.95-1.01-1.27-14.49-18.7-7.56-39.78,6.25-18.99,25.04-28.73,38.93-28.93,5.86-.08,11.34,1.53,12.17,1.78,7.03,2.11,13.28,5.99,18.26,11.13l16.64-16.64c-12.83-14.3-31.45-23.31-52.17-23.31-38.7,0-70.07,31.37-70.07,70.07s31.37,70.07,70.07,70.07c22.94,0,43.29-11.02,56.07-28.06v-41.59h-3.39Z"/>
      <g>
        <path d="M116.14,40.88l-9.07-26.06h6.01l5.87,19.51,5.9-19.51h5.98l-9.07,26.06h-5.62Z"/>
        <path d="M151.96,14.82v4.36h-12.06v6.19h10.26v4.21h-10.26v6.95h12.06v4.36h-17.49V14.82h17.49Z"/>
        <path d="M161.72,40.88h-5.4V14.82h5.4l10.47,17.13V14.82h5.36v26.06h-5.44l-10.4-17.1v17.1Z"/>
        <path d="M181.84,19.18v-4.36h21.24v4.36h-7.96v21.71h-5.4v-21.71h-7.88Z"/>
      </g>
      <g>
        <path d="M112.49,82.85h-5.4v-26.06h5.4l10.47,17.13v-17.13h5.36v26.06h-5.44l-10.4-17.1v17.1Z"/>
        <path d="M146.6,82.18c-1.33.68-2.83,1.03-4.48,1.03-2.66,0-4.79-.68-6.39-2.03s-2.39-3.35-2.39-5.99h5.44c0,1.3.29,2.23.86,2.81s1.4.86,2.48.86,1.85-.35,2.45-1.04c.6-.7.9-1.68.9-2.95v-18.07h5.4v18.07c0,1.68-.38,3.15-1.13,4.41s-1.8,2.23-3.13,2.92Z"/>
        <path d="M172.05,81.66c-1.67,1.03-3.59,1.55-5.78,1.55s-4.09-.52-5.78-1.55c-1.69-1.03-3.01-2.52-3.94-4.46-.94-1.94-1.4-4.22-1.4-6.84v-1.08c0-2.62.47-4.89,1.4-6.82.94-1.93,2.24-3.42,3.92-4.46,1.68-1.04,3.6-1.57,5.76-1.57s4.09.52,5.78,1.57c1.69,1.04,3.01,2.53,3.94,4.46.94,1.93,1.4,4.21,1.4,6.82v1.08c0,2.62-.47,4.9-1.4,6.84-.94,1.94-2.24,3.43-3.91,4.46ZM166.24,60.89c-1.8,0-3.19.71-4.16,2.14s-1.46,3.5-1.46,6.21v1.12c0,2.71.49,4.79,1.48,6.25.98,1.45,2.38,2.18,4.18,2.18s3.19-.72,4.16-2.16c.97-1.44,1.46-3.53,1.46-6.26v-1.12c0-2.71-.49-4.78-1.48-6.21s-2.38-2.14-4.18-2.14Z"/>
        <path d="M193.49,73.42v9.43h-5.47v-9.43l-8.57-16.63h5.9l5.36,11.7,5.4-11.7h5.9l-8.53,16.63Z"/>
      </g>
      <g>
        <path d="M116.2,128.4l-9.07-26.06h6.01l5.87,19.51,5.9-19.51h5.98l-9.07,26.06h-5.62Z"/>
        <path d="M152.02,102.34v4.36h-12.06v6.19h10.26v4.21h-10.26v6.95h12.06v4.36h-17.49v-26.06h17.49Z"/>
        <path d="M175.74,110.22c0,3.46-1.55,5.87-4.64,7.24l5.62,10.69v.25h-5.83l-4.82-9.54h-4.25v9.54h-5.4v-26.06h9.68c3.05,0,5.42.68,7.11,2.03,1.69,1.36,2.54,3.31,2.54,5.85ZM166.1,114.47c1.37,0,2.41-.34,3.13-1.03.72-.68,1.08-1.63,1.08-2.83s-.35-2.18-1.06-2.88c-.71-.7-1.76-1.04-3.15-1.04h-4.28v7.77h4.28Z"/>
        <path d="M192.77,118.97v9.43h-5.47v-9.43l-8.57-16.63h5.9l5.36,11.7,5.4-11.7h5.9l-8.53,16.63Z"/>
      </g>
    </g>
</svg>